<svg xmlns="http://www.w3.org/2000/svg" xmlns:xlink="http://www.w3.org/1999/xlink" version="1.1" width="1000" height="1000" viewBox="0 0 1000 1000" xml:space="preserve">
<desc>Created with Fabric.js 3.5.0</desc>
<defs>
</defs>
<rect x="0" y="0" width="100%" height="100%" fill="rgba(102,51,102,0)"/>
<g transform="matrix(1.5737 0 0 1.5737 500.0015 363.6223)" id="255647">
<g style="" vector-effect="non-scaling-stroke">
		<g transform="matrix(1 0 0 1 0 0.06)" id="Layer_1">
<path style="stroke: none; stroke-width: 1; stroke-dasharray: none; stroke-linecap: butt; stroke-dashoffset: 0; stroke-linejoin: miter; stroke-miterlimit: 4; is-custom-font: none; font-file-url: none; fill: rgb(0,0,0); fill-rule: nonzero; opacity: 1;" transform=" translate(-256, -256.06)" d="M 424.44 147.8 c 0 -0.16 0 -0.33 0 -0.49 a 0.5 0.5 0 0 1 0 -0.12 l -0.06 -0.41 l 0 -0.11 a 3.11 3.11 0 0 0 -0.11 -0.41 a 0.19 0.19 0 0 0 0 -0.07 c -0.05 -0.15 -0.1 -0.29 -0.16 -0.43 v 0 a 5.2 5.2 0 0 0 -1.14 -1.69 L 323 44 a 5.56 5.56 0 0 0 -1.66 -1.13 l -0.07 0 l -0.35 -0.13 l -0.15 -0.05 l -0.29 -0.07 l -0.24 -0.06 l -0.22 0 l -0.31 -0.05 h 0 l -0.49 0 H 128.24 A 40.71 40.71 0 0 0 87.56 83.06 V 428.94 a 40.71 40.71 0 0 0 40.68 40.67 H 383.76 a 40.71 40.71 0 0 0 40.68 -40.67 V 147.8 Z m -99.9 -87 l 81.54 81.69 H 347 A 22.51 22.51 0 0 1 324.54 120 Z m 89.14 368.16 a 30 30 0 0 1 -29.92 29.91 H 128.24 a 30 30 0 0 1 -29.92 -29.91 V 83.06 a 30 30 0 0 1 29.92 -29.91 H 313.78 V 120 A 33.28 33.28 0 0 0 347 153.23 h 66.66 Z" stroke-linecap="round"/>
</g>
		<g transform="matrix(1 0 0 1 -57.8351 -90.895)" id="Layer_1">
<path style="stroke: none; stroke-width: 1; stroke-dasharray: none; stroke-linecap: butt; stroke-dashoffset: 0; stroke-linejoin: miter; stroke-miterlimit: 4; is-custom-font: none; font-file-url: none; fill: rgb(0,0,0); fill-rule: nonzero; opacity: 1;" transform=" translate(-198.1649, -165.105)" d="M 150.7 235.43 h 0 a 5.38 5.38 0 0 0 5.36 -5.4 l -0.1 -22.75 a 42.23 42.23 0 0 1 42 -42.34 h 0.17 a 42.23 42.23 0 0 1 42.17 42 l 0.08 22.75 a 5.4 5.4 0 0 0 5.38 5.36 h 0 a 5.4 5.4 0 0 0 5.37 -5.41 l -0.09 -22.74 A 53 53 0 0 0 218 158.05 a 34.16 34.16 0 0 0 4.57 -3.87 a 34.85 34.85 0 0 0 -24.75 -59.4 h -0.14 a 34.84 34.84 0 0 0 -19.78 63.43 a 53 53 0 0 0 -32.7 49.11 l 0.09 22.75 A 5.39 5.39 0 0 0 150.7 235.43 Z m 47.05 -129.88 h 0.09 a 24.09 24.09 0 0 1 0.1 48.17 h -0.1 a 24.09 24.09 0 0 1 -0.09 -48.17 Z" stroke-linecap="round"/>
</g>
		<g transform="matrix(1 0 0 1 65.4589 -68.465)" id="Layer_1">
<path style="stroke: none; stroke-width: 1; stroke-dasharray: none; stroke-linecap: butt; stroke-dashoffset: 0; stroke-linejoin: miter; stroke-miterlimit: 4; is-custom-font: none; font-file-url: none; fill: rgb(0,0,0); fill-rule: nonzero; opacity: 1;" transform=" translate(-321.4589, -187.535)" d="M 276.36 187.54 a 5.38 5.38 0 0 0 5.38 5.38 H 361.4 a 5.39 5.39 0 0 0 0 -10.77 H 281.74 A 5.38 5.38 0 0 0 276.36 187.54 Z" stroke-linecap="round"/>
</g>
		<g transform="matrix(1 0 0 1 65.57 -25.95)" id="Layer_1">
<path style="stroke: none; stroke-width: 1; stroke-dasharray: none; stroke-linecap: butt; stroke-dashoffset: 0; stroke-linejoin: miter; stroke-miterlimit: 4; is-custom-font: none; font-file-url: none; fill: rgb(0,0,0); fill-rule: nonzero; opacity: 1;" transform=" translate(-321.57, -230.05)" d="M 361.4 224.67 H 281.74 a 5.38 5.38 0 0 0 0 10.76 H 361.4 a 5.38 5.38 0 0 0 0 -10.76 Z" stroke-linecap="round"/>
</g>
		<g transform="matrix(1 0 0 1 0 16.565)" id="Layer_1">
<path style="stroke: none; stroke-width: 1; stroke-dasharray: none; stroke-linecap: butt; stroke-dashoffset: 0; stroke-linejoin: miter; stroke-miterlimit: 4; is-custom-font: none; font-file-url: none; fill: rgb(0,0,0); fill-rule: nonzero; opacity: 1;" transform=" translate(-256, -272.565)" d="M 361.4 267.18 H 150.6 a 5.39 5.39 0 0 0 0 10.77 H 361.4 a 5.39 5.39 0 0 0 0 -10.77 Z" stroke-linecap="round"/>
</g>
		<g transform="matrix(1 0 0 1 0 59.09)" id="Layer_1">
<path style="stroke: none; stroke-width: 1; stroke-dasharray: none; stroke-linecap: butt; stroke-dashoffset: 0; stroke-linejoin: miter; stroke-miterlimit: 4; is-custom-font: none; font-file-url: none; fill: rgb(0,0,0); fill-rule: nonzero; opacity: 1;" transform=" translate(-256, -315.09)" d="M 361.4 309.71 H 150.6 a 5.38 5.38 0 1 0 0 10.76 H 361.4 a 5.38 5.38 0 0 0 0 -10.76 Z" stroke-linecap="round"/>
</g>
		<g transform="matrix(1 0 0 1 0 101.605)" id="Layer_1">
<path style="stroke: none; stroke-width: 1; stroke-dasharray: none; stroke-linecap: butt; stroke-dashoffset: 0; stroke-linejoin: miter; stroke-miterlimit: 4; is-custom-font: none; font-file-url: none; fill: rgb(0,0,0); fill-rule: nonzero; opacity: 1;" transform=" translate(-256, -357.605)" d="M 361.4 352.22 H 150.6 a 5.39 5.39 0 0 0 0 10.77 H 361.4 a 5.39 5.39 0 0 0 0 -10.77 Z" stroke-linecap="round"/>
</g>
		<g transform="matrix(1 0 0 1 0 144.12)" id="Layer_1">
<path style="stroke: none; stroke-width: 1; stroke-dasharray: none; stroke-linecap: butt; stroke-dashoffset: 0; stroke-linejoin: miter; stroke-miterlimit: 4; is-custom-font: none; font-file-url: none; fill: rgb(0,0,0); fill-rule: nonzero; opacity: 1;" transform=" translate(-256, -400.12)" d="M 361.4 394.74 H 150.6 a 5.38 5.38 0 0 0 0 10.76 H 361.4 a 5.38 5.38 0 0 0 0 -10.76 Z" stroke-linecap="round"/>
</g>
</g>
</g>
<g transform="matrix(1 0 0 1 500 916.8434)" style="" id="707316">
		
<path xml:space="preserve" font-family="Lato" font-size="214" font-style="normal" font-weight="bold" style="stroke: none; stroke-width: 1; stroke-dasharray: none; stroke-linecap: butt; stroke-dashoffset: 0; stroke-linejoin: miter; stroke-miterlimit: 4; is-custom-font: none; font-file-url: none; fill: rgb(0,0,0); fill-rule: nonzero; opacity: 1; white-space: pre;" d="M-325.71 6.77L-338.01 6.77L-338.01 67.23L-366.80 67.23L-366.80-87.50L-319.61-87.50Q-303.77-87.50-292.48-84.23Q-281.20-80.97-273.97-75.08Q-266.75-69.20-263.38-61.01Q-260.01-52.83-260.01-42.98L-260.01-42.98Q-260.01-35.17-262.31-28.22Q-264.61-21.26-268.94-15.59Q-273.28-9.92-279.64-5.64Q-286.01-1.36-294.14 1.21L-294.14 1.21Q-288.69 4.31-284.73 10.09L-284.73 10.09L-245.99 67.23L-271.89 67.23Q-275.63 67.23-278.25 65.73Q-280.88 64.23-282.69 61.45L-282.69 61.45L-315.22 11.91Q-317.04 9.13-319.23 7.95Q-321.43 6.77-325.71 6.77L-325.71 6.77ZM-338.01-65.24L-338.01-13.88L-320.04-13.88Q-311.90-13.88-305.86-15.91Q-299.81-17.95-295.91-21.53Q-292.00-25.11-290.08-30.04Q-288.15-34.96-288.15-40.84L-288.15-40.84Q-288.15-52.61-295.91-58.93Q-303.67-65.24-319.61-65.24L-319.61-65.24L-338.01-65.24ZM-183.72-44.27L-183.72-44.27Q-173.34-44.27-164.62-40.95Q-155.90-37.63-149.59-31.27Q-143.27-24.90-139.74-15.65Q-136.21-6.39-136.21 5.49L-136.21 5.49Q-136.21 8.48-136.48 10.46Q-136.75 12.44-137.44 13.57Q-138.14 14.69-139.31 15.17Q-140.49 15.65-142.31 15.65L-142.31 15.65L-210.15 15.65Q-208.97 32.56-201.05 40.48Q-193.13 48.39-180.08 48.39L-180.08 48.39Q-173.66 48.39-169.01 46.90Q-164.35 45.40-160.87 43.58Q-157.40 41.76-154.78 40.26Q-152.15 38.76-149.69 38.76L-149.69 38.76Q-148.09 38.76-146.91 39.41Q-145.73 40.05-144.88 41.22L-144.88 41.22L-137.17 50.86Q-141.56 55.99-147.02 59.47Q-152.47 62.95-158.41 65.03Q-164.35 67.12-170.50 67.97Q-176.66 68.83-182.44 68.83L-182.44 68.83Q-193.88 68.83-203.73 65.03Q-213.57 61.23-220.85 53.80Q-228.12 46.36-232.30 35.39Q-236.47 24.43-236.47 9.98L-236.47 9.98Q-236.47-1.25-232.83-11.15Q-229.19-21.05-222.40-28.38Q-215.60-35.71-205.81-39.99Q-196.02-44.27-183.72-44.27ZM-183.18-25.33L-183.18-25.33Q-194.74-25.33-201.27-18.80Q-207.79-12.28-209.61-0.29L-209.61-0.29L-159.96-0.29Q-159.96-5.43-161.36-9.97Q-162.75-14.52-165.64-17.95Q-168.52-21.37-172.91-23.35Q-177.30-25.33-183.18-25.33ZM-43.55-30.68L-49.54-21.16Q-50.61-19.44-51.79-18.75Q-52.96-18.05-54.78-18.05L-54.78-18.05Q-56.71-18.05-58.90-19.12Q-61.10-20.19-63.99-21.53Q-66.87-22.87-70.57-23.94Q-74.26-25.01-79.29-25.01L-79.29-25.01Q-87.10-25.01-91.59-21.69Q-96.09-18.37-96.09-13.02L-96.09-13.02Q-96.09-9.49-93.79-7.09Q-91.48-4.68-87.69-2.86Q-83.89-1.04-79.07 0.40Q-74.26 1.85-69.23 3.56Q-64.20 5.27-59.38 7.47Q-54.57 9.66-50.77 13.03Q-46.97 16.40-44.67 21.11Q-42.37 25.82-42.37 32.45L-42.37 32.45Q-42.37 40.37-45.26 47.06Q-48.15 53.74-53.71 58.61Q-59.28 63.48-67.46 66.21Q-75.65 68.94-86.24 68.94L-86.24 68.94Q-91.91 68.94-97.32 67.92Q-102.72 66.91-107.70 65.09Q-112.67 63.27-116.90 60.81Q-121.12 58.34-124.33 55.46L-124.33 55.46L-118.23 45.40Q-117.06 43.58-115.45 42.62Q-113.85 41.65-111.39 41.65L-111.39 41.65Q-108.93 41.65-106.73 43.04Q-104.54 44.44-101.65 46.04Q-98.76 47.64-94.86 49.04Q-90.95 50.43-84.96 50.43L-84.96 50.43Q-80.25 50.43-76.88 49.30Q-73.51 48.18-71.32 46.36Q-69.12 44.54-68.11 42.13Q-67.09 39.73-67.09 37.16L-67.09 37.16Q-67.09 33.31-69.39 30.85Q-71.69 28.38-75.49 26.57Q-79.29 24.75-84.16 23.30Q-89.02 21.86-94.11 20.15Q-99.19 18.43-104.06 16.13Q-108.93 13.83-112.72 10.30Q-116.52 6.77-118.82 1.64Q-121.12-3.50-121.12-10.78L-121.12-10.78Q-121.12-17.52-118.45-23.62Q-115.77-29.72-110.58-34.26Q-105.39-38.81-97.64-41.54Q-89.88-44.27-79.71-44.27L-79.71-44.27Q-68.37-44.27-59.06-40.52Q-49.75-36.78-43.55-30.68L-43.55-30.68ZM-23.43-42.56L3.00-42.56L3.00 27.21Q3.00 37.27 7.65 42.78Q12.31 48.29 21.61 48.29L21.61 48.29Q28.46 48.29 34.45 45.24Q40.45 42.19 45.80 36.84L45.80 36.84L45.80-42.56L72.23-42.56L72.23 67.23L56.07 67.23Q50.93 67.23 49.33 62.41L49.33 62.41L47.51 53.64Q44.08 57.06 40.45 59.90Q36.81 62.73 32.69 64.71Q28.57 66.69 23.81 67.81Q19.05 68.94 13.59 68.94L13.59 68.94Q4.60 68.94-2.30 65.89Q-9.20 62.84-13.91 57.27Q-18.62 51.71-21.03 44.06Q-23.43 36.41-23.43 27.21L-23.43 27.21L-23.43-42.56ZM126.90 67.23L100.47 67.23L100.47-42.56L116.63-42.56Q121.77-42.56 123.37-37.74L123.37-37.74L125.08-29.61Q127.97-32.82 131.13-35.49Q134.29-38.17 137.87-40.09Q141.45-42.02 145.57-43.14Q149.69-44.27 154.62-44.27L154.62-44.27Q164.99-44.27 171.68-38.65Q178.37-33.03 181.69-23.72L181.69-23.72Q184.25-29.18 188.11-33.09Q191.96-36.99 196.56-39.45Q201.16-41.91 206.35-43.09Q211.54-44.27 216.78-44.27L216.78-44.27Q225.88-44.27 232.94-41.49Q240.00-38.70 244.82-33.35Q249.63-28.00 252.15-20.30Q254.66-12.60 254.66-2.64L254.66-2.64L254.66 67.23L228.23 67.23L228.23-2.64Q228.23-13.13 223.63-18.43Q219.03-23.72 210.15-23.72L210.15-23.72Q206.08-23.72 202.60-22.33Q199.13-20.94 196.51-18.32Q193.88-15.70 192.39-11.74Q190.89-7.78 190.89-2.64L190.89-2.64L190.89 67.23L164.35 67.23L164.35-2.64Q164.35-13.67 159.91-18.69Q155.47-23.72 146.80-23.72L146.80-23.72Q141.13-23.72 136.16-20.89Q131.18-18.05 126.90-13.13L126.90-13.13L126.90 67.23ZM326.03-44.27L326.03-44.27Q336.41-44.27 345.13-40.95Q353.85-37.63 360.16-31.27Q366.48-24.90 370.01-15.65Q373.54-6.39 373.54 5.49L373.54 5.49Q373.54 8.48 373.27 10.46Q373.00 12.44 372.31 13.57Q371.61 14.69 370.43 15.17Q369.26 15.65 367.44 15.65L367.44 15.65L299.60 15.65Q300.78 32.56 308.70 40.48Q316.61 48.39 329.67 48.39L329.67 48.39Q336.09 48.39 340.74 46.90Q345.40 45.40 348.87 43.58Q352.35 41.76 354.97 40.26Q357.59 38.76 360.06 38.76L360.06 38.76Q361.66 38.76 362.84 39.41Q364.01 40.05 364.87 41.22L364.87 41.22L372.57 50.86Q368.19 55.99 362.73 59.47Q357.27 62.95 351.33 65.03Q345.40 67.12 339.24 67.97Q333.09 68.83 327.31 68.83L327.31 68.83Q315.86 68.83 306.02 65.03Q296.18 61.23 288.90 53.80Q281.62 46.36 277.45 35.39Q273.28 24.43 273.28 9.98L273.28 9.98Q273.28-1.25 276.92-11.15Q280.55-21.05 287.35-28.38Q294.14-35.71 303.93-39.99Q313.72-44.27 326.03-44.27ZM326.56-25.33L326.56-25.33Q315.01-25.33 308.48-18.80Q301.95-12.28 300.14-0.29L300.14-0.29L349.78-0.29Q349.78-5.43 348.39-9.97Q347.00-14.52 344.11-17.95Q341.22-21.37 336.84-23.35Q332.45-25.33 326.56-25.33Z"/></g>
</svg>